<?xml version="1.0" encoding="UTF-8"?>
<svg version="1.1" xmlns="http://www.w3.org/2000/svg" width="160" height="160">
<path d="M0 0 C52.8 0 105.6 0 160 0 C160 52.8 160 105.6 160 160 C107.2 160 54.4 160 0 160 C0 107.2 0 54.4 0 0 Z " fill="#F5F7F7" transform="translate(0,0)"/>
<path d="M0 0 C52.8 0 105.6 0 160 0 C160 52.8 160 105.6 160 160 C107.2 160 54.4 160 0 160 C0 107.2 0 54.4 0 0 Z M20.12890625 31.22265625 C12.4242119 41.27410153 8.25078447 51.86187773 5 64 C4.81969238 64.63977783 4.63938477 65.27955566 4.45361328 65.9387207 C0.43538496 84.19808655 6.07966603 104.3715496 15.08984375 120.1796875 C26.76688335 137.42063349 43.95898787 149.07685806 64.125 153.9375 C84.24397128 157.60170178 105.36859594 153.35846401 122.37109375 141.94921875 C126.88431801 138.60286079 130.99202442 134.93222347 135 131 C135.62648437 130.39800781 136.25296875 129.79601562 136.8984375 129.17578125 C151.62881772 113.81219465 155.48599462 92.67367545 155.203125 72.19921875 C154.66609136 53.84511186 144.09765105 35.10110787 130.89453125 22.61328125 C112.82178741 7.22350144 92.96167288 2.56182446 69.74658203 3.77685547 C50.00002499 5.38115352 32.8237643 16.48390334 20.12890625 31.22265625 Z " fill="#FCFDFD" transform="translate(0,0)"/>
<path d="M0 0 C3.57285287 2.78928928 6.81437055 5.77942764 10 9 C10.82564453 9.77537109 10.82564453 9.77537109 11.66796875 10.56640625 C22.39789166 21.58399466 26.68956861 38.00358394 27.5 52.875 C26.98976503 70.03744895 18.73705998 84.03402573 7 96 C6.45859375 96.56589844 5.9171875 97.13179688 5.359375 97.71484375 C-1.46593721 104.21267886 -11.61651985 109.38655214 -21 110 C-25.52570649 107.52163692 -29.25483914 102.87814012 -31 98 C-30.6953125 94.67578125 -30.6953125 94.67578125 -30 91 C-29.855625 89.845 -29.71125 88.69 -29.5625 87.5 C-28.54999861 81.19999134 -27.7190053 76.77128338 -22.625 72.625 C-19.32765665 70.32479141 -17.02520587 69.38801729 -13 70 C-6.38276228 74.15843535 -2.22147506 80.0066471 1 87 C4.465 86.505 4.465 86.505 8 86 C7.319375 84.906875 6.63875 83.81375 5.9375 82.6875 C4.77734375 80.82421875 4.77734375 80.82421875 4 79 C5.34290391 74.97128826 7.51307554 74.32461631 11 72 C15.75376003 67.38206168 17.69005603 61.09521713 18.18359375 54.57421875 C18.18689584 52.71514122 18.10312323 50.85621813 18 49 C16.02 49 14.04 49 12 49 C11.90203125 49.86882812 11.8040625 50.73765625 11.703125 51.6328125 C9.97960453 64.91580649 9.97960453 64.91580649 3.5 69.9375 C0.59488388 71.17217435 -0.10689091 71.05500594 -3 70 C-4.921875 68.58984375 -4.921875 68.58984375 -6.75 66.9375 C-7.36359375 66.38964844 -7.9771875 65.84179688 -8.609375 65.27734375 C-9.29773438 64.64505859 -9.29773438 64.64505859 -10 64 C-8.1327534 58.5680099 -5.91572572 52.57225276 -0.66015625 49.73828125 C1.07174671 49.07937682 2.81580704 48.45158411 4.5703125 47.85546875 C10.0677082 45.91989052 14.16079284 42.29087859 18 38 C18 37.34 18 36.68 18 36 C16.02 35.01 14.04 34.02 12 33 C11.773125 33.5775 11.54625 34.155 11.3125 34.75 C9.11167108 38.52284957 6.40344128 40.62574899 2.1875 41.75 C1.465625 41.8325 0.74375 41.915 0 42 C0.16242188 41.06671875 0.32484375 40.1334375 0.4921875 39.171875 C1.19979964 34.20608803 1.14583262 29.25677266 1.125 24.25 C1.12886719 23.30511719 1.13273437 22.36023437 1.13671875 21.38671875 C1.13542969 20.48050781 1.13414063 19.57429688 1.1328125 18.640625 C1.13112061 17.41134277 1.13112061 17.41134277 1.12939453 16.15722656 C1.08234365 13.81559979 1.08234365 13.81559979 0 11 C-1.98 11 -3.96 11 -6 11 C-5.835 11.86625 -5.67 12.7325 -5.5 13.625 C-4.60733769 19.69761822 -4.92360188 25.87966132 -5 32 C-5.61488281 31.57847656 -6.22976562 31.15695313 -6.86328125 30.72265625 C-7.67152344 30.17480469 -8.47976562 29.62695312 -9.3125 29.0625 C-10.11300781 28.51722656 -10.91351563 27.97195312 -11.73828125 27.41015625 C-15.14654532 25.28514186 -17.75811799 24.88055243 -21.6875 24.9375 C-22.49574219 24.94652344 -23.30398437 24.95554688 -24.13671875 24.96484375 C-24.75160156 24.97644531 -25.36648437 24.98804688 -26 25 C-26 27.31 -26 29.62 -26 32 C-25.33613281 31.96519531 -24.67226562 31.93039063 -23.98828125 31.89453125 C-14.85251484 31.61445666 -14.85251484 31.61445666 -11 35 C-8.46193303 38.41326248 -8 39.63912344 -8 44 C-8.97839844 44.09796875 -9.95679687 44.1959375 -10.96484375 44.296875 C-12.27582031 44.44640625 -13.58679688 44.5959375 -14.9375 44.75 C-16.86916016 44.95882812 -16.86916016 44.95882812 -18.83984375 45.171875 C-23.96385884 46.03334141 -23.96385884 46.03334141 -32 50 C-32 40.1 -32 30.2 -32 20 C-28.37 20 -24.74 20 -21 20 C-21 17.69 -21 15.38 -21 13 C-24.63 13 -28.26 13 -32 13 C-32 8.38 -32 3.76 -32 -1 C-34.31 -1 -36.62 -1 -39 -1 C-39 3.62 -39 8.24 -39 13 C-42.96 13 -46.92 13 -51 13 C-51 15.31 -51 17.62 -51 20 C-47.37 20 -43.74 20 -40 20 C-40 29.9 -40 39.8 -40 50 C-44.455 48.02 -44.455 48.02 -49 46 C-52.86928632 45.12461892 -52.86928632 45.12461892 -56.5625 44.75 C-57.78066406 44.60046875 -58.99882813 44.4509375 -60.25390625 44.296875 C-61.16011719 44.19890625 -62.06632812 44.1009375 -63 44 C-63.16225064 40.54058455 -63.1986103 39.30500868 -61.25 36.3125 C-58.43164415 33.41585649 -56.48985456 32.11286777 -52.421875 31.8046875 C-51.09929688 31.83949219 -51.09929688 31.83949219 -49.75 31.875 C-48.41195312 31.90207031 -48.41195312 31.90207031 -47.046875 31.9296875 C-46.37140625 31.95289063 -45.6959375 31.97609375 -45 32 C-45 29.69 -45 27.38 -45 25 C-52.59197536 24.2999203 -56.95511297 25.39304222 -63 30 C-63.99 30.66 -64.98 31.32 -66 32 C-66 25.4 -66 18.8 -66 12 C-67.98 11.67 -69.96 11.34 -72 11 C-73.09481595 15.41401986 -73.15282644 19.73068804 -73.125 24.25 C-73.12209961 25.3790979 -73.12209961 25.3790979 -73.11914062 26.53100586 C-73.07857269 31.75131043 -72.75222474 36.8284549 -72 42 C-76.41244536 41.49572053 -78.74974317 39.98672249 -82 37 C-82.66 36.01 -83.32 35.02 -84 34 C-85.65 34.66 -87.3 35.32 -89 36 C-87.87854663 40.7661768 -85.21655065 42.86640144 -81.41796875 45.61328125 C-78.78104526 47.12557178 -76.28904461 47.9032176 -73.375 48.75 C-67.72156559 50.60564746 -65.70114611 53.43393845 -62.92578125 58.5625 C-62 61 -62 61 -62 65 C-64.27292644 67.61905737 -66.90571568 69.45006012 -70 71 C-75.08106703 70.50185617 -77.79423713 67.82910565 -81 64 C-83.61437585 59.42484226 -83.61947515 54.15711309 -84 49 C-85.98 48.67 -87.96 48.34 -90 48 C-89.75456102 56.0503985 -89.12873533 62.03275913 -85 69 C-84.67 69.99 -84.34 70.98 -84 72 C-82.15028304 73.05021103 -82.15028304 73.05021103 -80 74 C-78.64886795 74.97581759 -77.31053056 75.97029741 -76 77 C-76.66 79.97 -77.32 82.94 -78 86 C-76.35 86.33 -74.7 86.66 -73 87 C-72.5875 86.27554688 -72.175 85.55109375 -71.75 84.8046875 C-67.45510722 77.61457682 -63.18369006 71.72789669 -55 69 C-49.4683558 71.94076868 -44.92956609 75.58742673 -42.6484375 81.5078125 C-41.9123885 85.0096214 -41.39180467 88.44458102 -41 92 C-40.73832031 93.02222656 -40.47664063 94.04445313 -40.20703125 95.09765625 C-40 98 -40 98 -41.58203125 100.703125 C-42.68611328 101.96382812 -42.68611328 101.96382812 -43.8125 103.25 C-44.54082031 104.10078125 -45.26914063 104.9515625 -46.01953125 105.828125 C-47.31460553 107.24836425 -48.6409016 108.6409016 -50 110 C-62.31405192 109.27829732 -72.70727737 101.54582189 -81 93 C-81.96873047 92.04480469 -81.96873047 92.04480469 -82.95703125 91.0703125 C-90.67616061 82.96438581 -94.62944091 72.79135109 -97 62 C-97.226875 61.01 -97.45375 60.02 -97.6875 59 C-99.4350242 42.22376769 -94.85541202 26.44244307 -84.72265625 12.97265625 C-82.5728842 10.52889828 -80.35192985 8.24816824 -78 6 C-77.484375 5.4534375 -76.96875 4.906875 -76.4375 4.34375 C-72.56599136 0.55289779 -67.90493606 -1.79973903 -63.125 -4.25 C-62.46491943 -4.5917627 -61.80483887 -4.93352539 -61.12475586 -5.28564453 C-41.81043551 -14.78775041 -17.58893199 -11.43170235 0 0 Z " fill="#32676A" transform="translate(115,29)"/>
<path d="M0 0 C15.56446137 12.23539602 28.14739778 29.84377949 31 49.8984375 C32.32595748 72.90366804 28.24579928 94.29110946 12.625 112.0859375 C11.10054078 113.70646546 9.55974685 115.31184475 8 116.8984375 C7.07767578 117.84009766 7.07767578 117.84009766 6.13671875 118.80078125 C-8.83750891 132.941326 -29.13921528 138.34135626 -49.296875 138.10546875 C-69.45792996 136.97832116 -87.41182911 127.47758514 -101.19921875 112.9765625 C-116.10582967 95.77413949 -121.19671029 75.78055573 -120.22216797 53.52783203 C-118.54161037 33.63815583 -107.61809705 15.93703004 -92.765625 3.06640625 C-66.0163817 -17.90228023 -28.12360568 -19.70117169 0 0 Z M-99.35546875 20.6640625 C-108.84410418 33.12568501 -113.60183188 46.9483797 -113.5 62.5859375 C-113.49355469 63.63177002 -113.48710938 64.67760254 -113.48046875 65.75512695 C-113.05079632 84.13351716 -105.44216393 99.02313252 -92.7578125 112.328125 C-83.39090069 121.05819294 -71.12099621 129.0605478 -58 129.8984375 C-55.75335362 128.7461154 -55.75335362 128.7461154 -53.9375 126.8359375 C-53.26589844 126.19398438 -52.59429687 125.55203125 -51.90234375 124.890625 C-49.44945092 122.32188713 -47.18546059 119.69855888 -45 116.8984375 C-43.96939453 118.05472656 -43.96939453 118.05472656 -42.91796875 119.234375 C-42.00798599 120.24755168 -41.09782013 121.26056393 -40.1875 122.2734375 C-39.73568359 122.78132813 -39.28386719 123.28921875 -38.81835938 123.8125 C-36.64829248 126.22016546 -34.71407209 128.08905611 -32 129.8984375 C-17.9841663 129.59374546 -4.71118213 120.40284021 5.25 111.2109375 C20.08893062 95.39947654 24.62187422 77.3814193 24.33984375 56.23828125 C23.69265122 38.03901248 13.6910099 22.88275352 0.6953125 10.74609375 C-12.21986507 -0.28473824 -27.28990319 -5.70524484 -44.1875 -5.6015625 C-45.27957764 -5.59584229 -46.37165527 -5.59012207 -47.49682617 -5.58422852 C-68.57484956 -5.12218903 -85.81490049 4.76568385 -99.35546875 20.6640625 Z " fill="#2E6668" transform="translate(124,17.1015625)"/>
<path d="M0 0 C1.32 0.66 2.64 1.32 4 2 C4 3.65 4 5.3 4 7 C3.34 7 2.68 7 2 7 C2 7.66 2 8.32 2 9 C0.68 9.33 -0.64 9.66 -2 10 C-1.34 10.86625 -0.68 11.7325 0 12.625 C2.14973042 16.25267009 2.54924721 17.88064589 2 22 C1.34 22.99 0.68 23.98 0 25 C-4.75 23.125 -4.75 23.125 -7 22 C-7.103125 22.61875 -7.20625 23.2375 -7.3125 23.875 C-8 26 -8 26 -11 28 C-9.87854663 32.7661768 -7.21655065 34.86640144 -3.41796875 37.61328125 C-0.78104526 39.12557178 1.71095539 39.9032176 4.625 40.75 C10.27843441 42.60564746 12.29885389 45.43393845 15.07421875 50.5625 C16 53 16 53 16 57 C13.72707356 59.61905737 11.09428432 61.45006012 8 63 C2.91893297 62.50185617 0.20576287 59.82910565 -3 56 C-5.61437585 51.42484226 -5.61947515 46.15711309 -6 41 C-7.98 40.67 -9.96 40.34 -12 40 C-11.75456102 48.0503985 -11.12873533 54.03275913 -7 61 C-6.67 61.99 -6.34 62.98 -6 64 C-4.15028304 65.05021103 -4.15028304 65.05021103 -2 66 C-0.64886795 66.97581759 0.68946944 67.97029741 2 69 C1.34 71.97 0.68 74.94 0 78 C1.65 78.33 3.3 78.66 5 79 C5.4125 78.27554688 5.825 77.55109375 6.25 76.8046875 C10.54489278 69.61457682 14.81630994 63.72789669 23 61 C28.5316442 63.94076868 33.07043391 67.58742673 35.3515625 73.5078125 C36.0876115 77.0096214 36.60819533 80.44458102 37 84 C37.26167969 85.02222656 37.52335937 86.04445313 37.79296875 87.09765625 C38 90 38 90 36.41796875 92.703125 C35.31388672 93.96382812 35.31388672 93.96382812 34.1875 95.25 C33.45917969 96.10078125 32.73085937 96.9515625 31.98046875 97.828125 C30.68539447 99.24836425 29.3590984 100.6409016 28 102 C15.68594808 101.27829732 5.29272263 93.54582189 -3 85 C-3.96873047 84.04480469 -3.96873047 84.04480469 -4.95703125 83.0703125 C-12.67616061 74.96438581 -16.62944091 64.79135109 -19 54 C-19.3403125 52.515 -19.3403125 52.515 -19.6875 51 C-21.45241658 34.05680082 -16.43070319 19.73564458 -7.44921875 5.55078125 C-6 4 -6 4 -2.8125 3.75 C-1.884375 3.8325 -0.95625 3.915 0 4 C0 2.68 0 1.36 0 0 Z " fill="#33686A" transform="translate(37,37)"/>
<path d="M0 0 C1.01835938 0.43570312 2.03671875 0.87140625 3.0859375 1.3203125 C10.22555746 4.61137158 16.1321996 8.79783141 22 14 C22.93779297 14.79664063 22.93779297 14.79664063 23.89453125 15.609375 C33.76800936 24.61363044 42.23725796 40.04281603 43.17700195 53.54272461 C43.70876352 78.35755813 43.70876352 78.35755813 39 89 C38.6184375 89.91394531 38.236875 90.82789062 37.84375 91.76953125 C36.93958209 93.87172163 35.99973748 95.94202977 35 98 C34.05125 97.814375 33.1025 97.62875 32.125 97.4375 C29.10131207 96.71313368 29.10131207 96.71313368 27 98 C27.2784375 97.30519531 27.556875 96.61039062 27.84375 95.89453125 C28.2253125 94.93933594 28.606875 93.98414062 29 93 C29.4021875 91.99324219 29.804375 90.98648438 30.21875 89.94921875 C36.73225869 73.36757315 38.46546785 57.76359604 31.3359375 40.83984375 C24.13967941 25.05980772 13.11633054 14.50184425 -2.59375 7.26171875 C-17.77209835 1.63946357 -36.48338053 1.90451728 -51.2578125 8.44140625 C-68.47333957 17.04916979 -78.58842193 30.26286068 -85 48 C-89.49010856 62.58291896 -87.08166133 79.59004556 -80 93 C-73.14061241 103.8619701 -65.69118424 111.51583017 -54.34375 117.5546875 C-53.5703125 118.03164062 -52.796875 118.50859375 -52 119 C-52 119.66 -52 120.32 -52 121 C-53.6875 122.6875 -53.6875 122.6875 -56 124 C-65.66176241 123.13792356 -73.73738575 113.80815498 -79.71484375 106.90234375 C-92.80987767 90.27053144 -95.85860612 72.69049503 -94 52 C-92.17571366 39.01141754 -85.41934334 27.80385758 -77 18 C-76.50242187 17.40703125 -76.00484375 16.8140625 -75.4921875 16.203125 C-67.90566336 7.89225936 -56.74073434 1.26965572 -46 -2 C-44.83597656 -2.35449219 -43.67195313 -2.70898438 -42.47265625 -3.07421875 C-29.21268887 -6.29648355 -12.46023558 -5.65098008 0 0 Z " fill="#F4F6F6" transform="translate(105,16)"/>
<path d="M0 0 C7.28732306 1.61940512 10.2159968 3.96184295 14.296875 10.171875 C21.92553286 22.8396463 24.7413185 36.25599866 24 51 C22.68 49.68 21.36 48.36 20 47 C19.67 48.32 19.34 49.64 19 51 C18.34 51 17.68 51 17 51 C16.67 51.99 16.34 52.98 16 54 C14.89771304 49.59085217 14.92345464 45.51617599 15 41 C13.02 41 11.04 41 9 41 C8.90203125 41.86882812 8.8040625 42.73765625 8.703125 43.6328125 C6.97960453 56.91580649 6.97960453 56.91580649 0.5 61.9375 C-2.40511612 63.17217435 -3.10689091 63.05500594 -6 62 C-7.921875 60.58984375 -7.921875 60.58984375 -9.75 58.9375 C-10.36359375 58.38964844 -10.9771875 57.84179688 -11.609375 57.27734375 C-12.06828125 56.85582031 -12.5271875 56.43429688 -13 56 C-11.1327534 50.5680099 -8.91572572 44.57225276 -3.66015625 41.73828125 C-1.92825329 41.07937682 -0.18419296 40.45158411 1.5703125 39.85546875 C7.0677082 37.91989052 11.16079284 34.29087859 15 30 C15 29.34 15 28.68 15 28 C13.02 27.01 11.04 26.02 9 25 C8.773125 25.5775 8.54625 26.155 8.3125 26.75 C6.11167108 30.52284957 3.40344128 32.62574899 -0.8125 33.75 C-1.534375 33.8325 -2.25625 33.915 -3 34 C-2.75056641 32.61167969 -2.75056641 32.61167969 -2.49609375 31.1953125 C-1.62932883 25.14166786 -1.99406734 19.01460768 -2.12695312 12.91796875 C-2.13791016 11.97308594 -2.14886719 11.02820312 -2.16015625 10.0546875 C-2.17699463 9.20374512 -2.19383301 8.35280273 -2.21118164 7.47607422 C-1.97231211 4.6753635 -1.15523218 2.54863307 0 0 Z " fill="#2F6769" transform="translate(118,37)"/>
<path d="M0 0 C1.32 0.66 2.64 1.32 4 2 C4 3.65 4 5.3 4 7 C3.34 7 2.68 7 2 7 C2 7.66 2 8.32 2 9 C0.68 9.33 -0.64 9.66 -2 10 C-1.34 10.86625 -0.68 11.7325 0 12.625 C2.14973042 16.25267009 2.54924721 17.88064589 2 22 C1.34 22.99 0.68 23.98 0 25 C-4.75 23.125 -4.75 23.125 -7 22 C-7.103125 22.61875 -7.20625 23.2375 -7.3125 23.875 C-8 26 -8 26 -11 28 C-9.87854663 32.7661768 -7.21655065 34.86640144 -3.41796875 37.61328125 C-0.78104526 39.12557178 1.71095539 39.9032176 4.625 40.75 C10.27843441 42.60564746 12.29885389 45.43393845 15.07421875 50.5625 C16 53 16 53 16 57 C13.72707356 59.61905737 11.09428432 61.45006012 8 63 C2.91893297 62.50185617 0.20576287 59.82910565 -3 56 C-5.61437585 51.42484226 -5.61947515 46.15711309 -6 41 C-7.98 40.67 -9.96 40.34 -12 40 C-11.88521587 42.06309376 -11.75773802 44.12548354 -11.625 46.1875 C-11.55539063 47.33605469 -11.48578125 48.48460937 -11.4140625 49.66796875 C-11.02194196 52.8234293 -10.20302452 55.09024558 -9 58 C-9 59.32 -9 60.64 -9 62 C-9.78375 61.95875 -10.5675 61.9175 -11.375 61.875 C-14.16116119 61.71271266 -14.16116119 61.71271266 -16 64 C-21.79116059 45.57026881 -20.72957963 30.68496431 -11.95703125 13.38012695 C-8.37533872 6.54180451 -8.37533872 6.54180451 -6 4 C-2.8125 3.75 -2.8125 3.75 0 4 C0 2.68 0 1.36 0 0 Z " fill="#2F666A" transform="translate(37,37)"/>
<path d="M0 0 C10.6066313 1.67573349 18.54947662 8.72725483 26 16 C23 17 23 17 20.8125 16.0625 C20.214375 15.711875 19.61625 15.36125 19 15 C18.505 17.475 18.505 17.475 18 20 C17.34 19.34 16.68 18.68 16 18 C12.91652174 17.83318891 12.91652174 17.83318891 10 18 C10.2475 19.299375 10.2475 19.299375 10.5 20.625 C11.39266231 26.69761822 11.07639812 32.87966132 11 39 C10.38511719 38.57847656 9.77023438 38.15695313 9.13671875 37.72265625 C8.32847656 37.17480469 7.52023438 36.62695312 6.6875 36.0625 C5.88699219 35.51722656 5.08648437 34.97195312 4.26171875 34.41015625 C0.85345468 32.28514186 -1.75811799 31.88055243 -5.6875 31.9375 C-6.49574219 31.94652344 -7.30398437 31.95554687 -8.13671875 31.96484375 C-8.75160156 31.97644531 -9.36648437 31.98804687 -10 32 C-10 34.31 -10 36.62 -10 39 C-9.33613281 38.96519531 -8.67226562 38.93039063 -7.98828125 38.89453125 C1.14748516 38.61445666 1.14748516 38.61445666 5 42 C7.53806697 45.41326248 8 46.63912344 8 51 C7.02160156 51.09796875 6.04320313 51.1959375 5.03515625 51.296875 C3.72417969 51.44640625 2.41320312 51.5959375 1.0625 51.75 C-0.22527344 51.88921875 -1.51304688 52.0284375 -2.83984375 52.171875 C-7.96385884 53.03334141 -7.96385884 53.03334141 -16 57 C-16 47.1 -16 37.2 -16 27 C-12.37 27 -8.74 27 -5 27 C-5 24.69 -5 22.38 -5 20 C-2.36 20.99 0.28 21.98 3 23 C3.33 22.01 3.66 21.02 4 20 C5.32 20 6.64 20 8 20 C7.20907175 14.03480343 7.20907175 14.03480343 4.1875 9.0625 C1.82693213 7.91593846 -0.53137329 6.89144853 -3 6 C-2 4 -1 2 0 0 Z " fill="#32686A" transform="translate(99,22)"/>
<path d="M0 0 C0 0.66 0 1.32 0 2 C0.66 2.33 1.32 2.66 2 3 C1.01 3.495 1.01 3.495 0 4 C0.99 4.66 1.98 5.32 3 6 C2.05125 6.4125 1.1025 6.825 0.125 7.25 C-3.1165736 9.06528122 -3.92277885 9.57247816 -5 13 C-5.38290462 14.99110401 -5.72604615 16.99100513 -6 19 C-1.45829004 17.09115308 -1.45829004 17.09115308 3 15 C4.20833333 22.25 4.20833333 22.25 3.375 25.25 C2 27 2 27 -0.625 29.0625 C-1.40875 29.701875 -2.1925 30.34125 -3 31 C-3 31.99 -3 32.98 -3 34 C-4.65 35.32 -6.3 36.64 -8 38 C-8 31.4 -8 24.8 -8 18 C-9.98 17.67 -11.96 17.34 -14 17 C-15.09481595 21.41401986 -15.15282644 25.73068804 -15.125 30.25 C-15.12209961 31.3790979 -15.12209961 31.3790979 -15.11914062 32.53100586 C-15.07857269 37.75131043 -14.75222474 42.8284549 -14 48 C-19.68868566 47.3498645 -22.58113688 44.53087863 -26.375 40.4375 C-27.179375 39.2309375 -27.179375 39.2309375 -28 38 C-27.67 37.01 -27.34 36.02 -27 35 C-26.21625 35.495 -25.4325 35.99 -24.625 36.5 C-22.21447673 38.16537965 -22.21447673 38.16537965 -20 38 C-18.56031594 35.12063188 -18.697177 33.20992381 -19 30 C-20.14862695 27.49709673 -21.50856143 25.33037277 -23 23 C-21.35 23 -19.7 23 -18 23 C-18 22.34 -18 21.68 -18 21 C-17.34 21 -16.68 21 -16 21 C-16.60183749 18.97954558 -17.27306096 16.97888961 -18 15 C-18.66 14.67 -19.32 14.34 -20 14 C-20 15.32 -20 16.64 -20 18 C-21.65 18 -23.3 18 -25 18 C-19.49264438 11.08050191 -9.67740007 0 0 0 Z " fill="#2D6668" transform="translate(57,23)"/>
<path d="M0 0 C7.33830237 1.63073386 10.206705 4.02880751 14.3515625 10.24609375 C16.61195118 14.0223355 18.40646297 17.90233335 20 22 C18.68 22 17.36 22 16 22 C16 23.32 16 24.64 16 26 C13 27 13 27 10.8125 26.0625 C9.9153125 25.5365625 9.9153125 25.5365625 9 25 C8.773125 25.5775 8.54625 26.155 8.3125 26.75 C6.11167108 30.52284957 3.40344128 32.62574899 -0.8125 33.75 C-1.534375 33.8325 -2.25625 33.915 -3 34 C-2.83371094 33.07445312 -2.66742188 32.14890625 -2.49609375 31.1953125 C-1.62932883 25.14166786 -1.99406734 19.01460768 -2.12695312 12.91796875 C-2.13791016 11.97308594 -2.14886719 11.02820312 -2.16015625 10.0546875 C-2.17699463 9.20374512 -2.19383301 8.35280273 -2.21118164 7.47607422 C-1.97231211 4.6753635 -1.15523218 2.54863307 0 0 Z " fill="#2F6869" transform="translate(118,37)"/>
<path d="M0 0 C1.32 0.66 2.64 1.32 4 2 C4 3.65 4 5.3 4 7 C3.34 7 2.68 7 2 7 C2 7.66 2 8.32 2 9 C0.68 9.33 -0.64 9.66 -2 10 C-1.34 10.86625 -0.68 11.7325 0 12.625 C2.14973042 16.25267009 2.54924721 17.88064589 2 22 C1.34 22.99 0.68 23.98 0 25 C-4.75 23.125 -4.75 23.125 -7 22 C-7.103125 22.61875 -7.20625 23.2375 -7.3125 23.875 C-8 26 -8 26 -11 28 C-10.649375 28.94875 -10.29875 29.8975 -9.9375 30.875 C-9 34 -9 34 -10 36 C-10.99 36 -11.98 36 -13 36 C-13.28875 37.11375 -13.5775 38.2275 -13.875 39.375 C-15 43 -15 43 -17 45 C-17.40047444 47.32275177 -17.7397104 49.65739357 -18 52 C-22.22891212 44.7047054 -20.13003101 35.34348973 -18.1875 27.5546875 C-15.56834692 19.71445952 -11.68253011 10.08076672 -6 4 C-2.8125 3.75 -2.8125 3.75 0 4 C0 2.68 0 1.36 0 0 Z " fill="#346A6C" transform="translate(37,37)"/>
<path d="M0 0 C1.99954746 -0.04254356 4.00041636 -0.04080783 6 0 C7.60370168 1.60370168 7.23595788 3.47275774 7.375 5.6875 C7.88964487 11.23774704 9.33965554 14.95224183 12.875 19.3125 C15.34690516 21.27548351 16.84438056 21.91908668 20 22 C21.8354799 20.66621425 21.8354799 20.66621425 23 19 C23.66 19.33 24.32 19.66 25 20 C25 20.66 25 21.32 25 22 C25.96113866 23.36161311 26.95884159 24.69855198 28 26 C26.948125 26.9590625 26.948125 26.9590625 25.875 27.9375 C22.28363177 31.49799687 19.69563035 35.74812946 17 40 C15.35 39.67 13.7 39.34 12 39 C10.53273202 35.18510326 11.56663581 32.70988378 13 29 C11.948125 28.34 10.89625 27.68 9.8125 27 C4.83209976 23.4642189 1.91583925 18.74751776 0 13 C-0.06937062 10.77181559 -0.08457084 8.54165476 -0.0625 6.3125 C-0.05347656 5.13300781 -0.04445313 3.95351562 -0.03515625 2.73828125 C-0.02355469 1.83464844 -0.01195313 0.93101563 0 0 Z " fill="#F5F6F7" transform="translate(25,77)"/>
<path d="M0 0 C3.63 0 7.26 0 11 0 C11 9.9 11 19.8 11 30 C6.545 28.02 6.545 28.02 2 26 C-1.86928632 25.12461892 -1.86928632 25.12461892 -5.5625 24.75 C-6.78066406 24.60046875 -7.99882813 24.4509375 -9.25390625 24.296875 C-10.16011719 24.19890625 -11.06632812 24.1009375 -12 24 C-12.16225064 20.54058455 -12.1986103 19.30500868 -10.25 16.3125 C-7.43164415 13.41585649 -5.48985456 12.11286777 -1.421875 11.8046875 C-0.54015625 11.82789063 0.3415625 11.85109375 1.25 11.875 C2.14203125 11.89304687 3.0340625 11.91109375 3.953125 11.9296875 C4.96632813 11.96449219 4.96632813 11.96449219 6 12 C6 9.36 6 6.72 6 4 C7.32 4 8.64 4 10 4 C10 3.01 10 2.02 10 1 C6.7 1 3.4 1 0 1 C0 0.67 0 0.34 0 0 Z " fill="#2D6668" transform="translate(64,49)"/>
<path d="M0 0 C1.32 0.66 2.64 1.32 4 2 C3.73295465 14.11414809 0.04761778 24.84618046 -8 34 C-10.31 33.67 -12.62 33.34 -15 33 C-15.12375 32.278125 -15.2475 31.55625 -15.375 30.8125 C-15.9904931 28.04278106 -16.88444374 25.6029646 -18 23 C-17.46890625 22.64808594 -16.9378125 22.29617187 -16.390625 21.93359375 C-9.71901699 17.27077282 -6.79530327 12.68708398 -4 5 C-2.68 5 -1.36 5 0 5 C0 3.35 0 1.7 0 0 Z " fill="#2F6668" transform="translate(137,83)"/>
<path d="M0 0 C0.99 0.66 1.98 1.32 3 2 C3 2.66 3 3.32 3 4 C3.5775 4.268125 4.155 4.53625 4.75 4.8125 C7.0325868 6.01719859 8.9737942 7.40798115 11 9 C10.34 11.97 9.68 14.94 9 18 C9.99 18.66 10.98 19.32 12 20 C11.67 21.65 11.34 23.3 11 25 C10.34 25 9.68 25 9 25 C8.67 25.66 8.34 26.32 8 27 C1.63734987 20.60907142 -4.35346941 13.80455543 -7 5 C-6.14453125 2.6484375 -6.14453125 2.6484375 -5 1 C-3.35 1.33 -1.7 1.66 0 2 C0 1.34 0 0.68 0 0 Z " fill="#31686A" transform="translate(28,97)"/>
<path d="M0 0 C2.31 0.66 4.62 1.32 7 2 C6.74863281 2.97259766 6.74863281 2.97259766 6.4921875 3.96484375 C5.74226786 8.58934821 6.03138272 13.17932973 6.21484375 17.84960938 C6.27903324 21.16120356 6.22951122 23.56066936 4.6796875 26.52734375 C3 28 3 28 0 28 C-2.25947743 23.47207896 -2.30151398 19.50354907 -2.25 14.5625 C-2.25773437 13.82451172 -2.26546875 13.08652344 -2.2734375 12.32617188 C-2.25746713 7.83450437 -1.68914015 4.2295533 0 0 Z " fill="#F4F6F6" transform="translate(43,39)"/>
<path d="M0 0 C1.32 0 2.64 0 4 0 C5.703125 2.046875 5.703125 2.046875 7.25 4.75 C7.77078125 5.63171875 8.2915625 6.5134375 8.828125 7.421875 C10 10 10 10 10 14 C7.72707356 16.61905737 5.09428432 18.45006012 2 20 C-1.98809893 19.60900991 -3.6714309 18.25555375 -6.8125 15.8125 C-9.40672124 12.47707269 -9.75489645 10.16676032 -10 6 C-9.34 6 -8.68 6 -8 6 C-7.67 5.01 -7.34 4.02 -7 3 C-6.76925781 3.54269531 -6.53851563 4.08539063 -6.30078125 4.64453125 C-4.23046561 9.18613276 -2.76296329 11.88312742 2 14 C2.0309375 12.1128125 2.0309375 12.1128125 2.0625 10.1875 C2.07410156 9.47980469 2.08570313 8.77210937 2.09765625 8.04296875 C2.08263217 5.79694539 2.08263217 5.79694539 1 3 C1.33 2.34 1.66 1.68 2 1 C1.34 0.67 0.68 0.34 0 0 Z " fill="#2E6668" transform="translate(43,80)"/>
<path d="M0 0 C-2.15697686 7.66925106 -8.92804917 13.26091642 -15 18 C-19.02985075 11.95522388 -19.02985075 11.95522388 -18.9375 9 C-16.95635712 4.77356186 -13.15942696 2.92477872 -9 1.25 C-5.90675243 0.16619167 -3.30523821 -0.30986608 0 0 Z " fill="#346A6C" transform="translate(103,80)"/>
<path d="M0 0 C7.80801031 0.2518713 12.59128959 2.62495135 19 7 C18.44894091 10.9492568 17.61064629 14.34920174 16 18 C8.8633755 13.89644091 2.72257859 7.87603093 0 0 Z " fill="#31686A" transform="translate(55,80)"/>
<path d="M0 0 C0.99 0.33 1.98 0.66 3 1 C3.33 3.31 3.66 5.62 4 8 C4.99 8 5.98 8 7 8 C7.4375 10.1875 7.4375 10.1875 7 13 C4.94091564 15.1498429 2.74158263 16.82981229 0 18 C-3.31481735 17.57955442 -4.82162061 16.5051363 -7 14 C-6.71125 13.505 -6.4225 13.01 -6.125 12.5 C-4.83875783 9.64168408 -4.25621249 6.871773 -3.66015625 3.8046875 C-3 2 -3 2 0 0 Z " fill="#32696B" transform="translate(116,82)"/>
<path d="M0 0 C0.71929687 0.29003906 1.43859375 0.58007812 2.1796875 0.87890625 C2.90414062 1.16636719 3.62859375 1.45382813 4.375 1.75 C4.92929687 1.97816406 5.48359375 2.20632812 6.0546875 2.44140625 C6.0546875 3.10140625 6.0546875 3.76140625 6.0546875 4.44140625 C6.7146875 4.44140625 7.3746875 4.44140625 8.0546875 4.44140625 C8.24935082 6.23230878 8.43519963 8.0241713 8.6171875 9.81640625 C8.72160156 10.81414062 8.82601562 11.811875 8.93359375 12.83984375 C9.0546875 15.44140625 9.0546875 15.44140625 8.0546875 17.44140625 C4.92486838 17.10606849 4.05407591 16.44074224 1.8671875 14.06640625 C0.0546875 11.44140625 0.0546875 11.44140625 -0.9453125 8.44140625 C-4.06316363 9.08785286 -4.06316363 9.08785286 -4.9453125 11.44140625 C-4.83179733 9.62815074 -4.70418289 7.81577268 -4.5703125 6.00390625 C-4.50070313 4.99457031 -4.43109375 3.98523438 -4.359375 2.9453125 C-4.22273438 2.11902344 -4.08609375 1.29273437 -3.9453125 0.44140625 C-1.9453125 -0.55859375 -1.9453125 -0.55859375 0 0 Z " fill="#396D70" transform="translate(36.9453125,76.55859375)"/>
<path d="M0 0 C0.54269531 0.40992187 1.08539063 0.81984375 1.64453125 1.2421875 C2.35996094 1.78101562 3.07539062 2.31984375 3.8125 2.875 C4.52019531 3.40867187 5.22789063 3.94234375 5.95703125 4.4921875 C7.60456297 5.70814781 9.29624211 6.86416141 11 8 C11 9.32 11 10.64 11 12 C10.34 12 9.68 12 9 12 C9.33 14.97 9.66 17.94 10 21 C9.01 21 8.02 21 7 21 C6.67 20.01 6.34 19.02 6 18 C6.66 18 7.32 18 8 18 C5.88673474 13.29157376 5.88673474 13.29157376 2 10 C-0.32387947 9.60612212 -2.65793749 9.26513915 -5 9 C-5.33 9.99 -5.66 10.98 -6 12 C-6.73980543 9.33670046 -7.16398398 7.55754554 -6.375 4.875 C-4.61033183 2.46863431 -2.61749674 1.37762986 0 0 Z " fill="#286565" transform="translate(59,98)"/>
<path d="M0 0 C3.14158949 0.93398606 4.7325148 1.66794941 6.8125 4.25 C8.19169538 7.44392615 8.37462902 9.55341303 8 13 C7.01 14.485 7.01 14.485 6 16 C2.34683329 14.75023244 1.21934164 14.32901247 -1 11 C-1.23046875 8.80859375 -1.23046875 8.80859375 -1.1875 6.4375 C-1.18105469 5.65246094 -1.17460937 4.86742187 -1.16796875 4.05859375 C-1 2 -1 2 0 0 Z " fill="#F1F4F5" transform="translate(31,46)"/>
<path d="M0 0 C3 1 3 1 4 3 C4.04351484 7.50813764 3.80639538 10.99811483 0.9375 14.5625 C0.298125 15.036875 -0.34125 15.51125 -1 16 C-2.32 15.34 -3.64 14.68 -5 14 C-5.602537 7.01057082 -5.602537 7.01057082 -3.88671875 4.1328125 C-2.66254412 2.69138998 -1.33721771 1.33721771 0 0 Z " fill="#F6F7F8" transform="translate(125,46)"/>
<path d="M0 0 C1.32 0.66 2.64 1.32 4 2 C4 2.99 4 3.98 4 5 C4.66 4.34 5.32 3.68 6 3 C6 3.66 6 4.32 6 5 C6.99 5 7.98 5 9 5 C9 6.98 9 8.96 9 11 C6.525 10.505 6.525 10.505 4 10 C4 9.01 4 8.02 4 7 C-0.95 6.67 -5.9 6.34 -11 6 C-10.67 15.24 -10.34 24.48 -10 34 C-10.99 34.495 -10.99 34.495 -12 35 C-12 25.1 -12 15.2 -12 5 C-8.04 5 -4.08 5 0 5 C0 3.35 0 1.7 0 0 Z " fill="#1B5F61" transform="translate(95,44)"/>
<path d="M0 0 C4.01922848 -0.31523361 6.35183346 -0.38044558 9.875 1.6875 C12.19628348 4.21360261 12.71897086 5.62765029 13 9 C5.7027027 9.48648649 5.7027027 9.48648649 2.5625 7.3125 C0.87415352 4.81374721 0.33083605 2.97752446 0 0 Z " fill="#F3F5F6" transform="translate(54,107)"/>
<path d="M0 0 C3.37234971 0.28102914 4.78639739 0.80371652 7.3125 3.125 C9.38044558 6.64816654 9.31523361 8.98077152 9 13 C5.31731261 12.50233954 3.34971233 11.93714041 1 9 C-0.4783226 6.04335481 -0.06032783 3.25770263 0 0 Z " fill="#F1F3F4" transform="translate(98,29)"/>
<path d="M0 0 C0.60913706 7.18781726 0.60913706 7.18781726 -2.25 11 C-5 13 -5 13 -9 13 C-9.32521241 8.3386221 -8.81951666 5.75935554 -6 2 C-3 0 -3 0 0 0 Z " fill="#EEF2F3" transform="translate(60,29)"/>
<path d="M0 0 C-0.48 5.4 -0.48 5.4 -2.625 7.875 C-5.83105694 9.39365855 -8.50045311 9.20189694 -12 9 C-11.52 3.6 -11.52 3.6 -9.375 1.125 C-6.16894306 -0.39365855 -3.49954689 -0.20189694 0 0 Z " fill="#F1F3F4" transform="translate(104,107)"/>
<path d="M0 0 C2.31 0 4.62 0 7 0 C7.1875 2.375 7.1875 2.375 7 5 C3.31912647 7.45391569 0.55644412 7.22802759 -3.6875 7.125 C-4.7403418 7.11146484 -4.7403418 7.11146484 -5.81445312 7.09765625 C-7.54311525 7.07413704 -9.27160145 7.03826713 -11 7 C-11.66 5.68 -12.32 4.36 -13 3 C-10.525 3.495 -10.525 3.495 -8 4 C-8 4.66 -8 5.32 -8 6 C-7.34 5.67 -6.68 5.34 -6 5 C-5.67 4.01 -5.34 3.02 -5 2 C-3.35 2 -1.7 2 0 2 C0 1.34 0 0.68 0 0 Z " fill="#35686B" transform="translate(83,5)"/>
<path d="M0 0 C0.33 0 0.66 0 1 0 C1.31382096 7.62468695 1.57245002 14.11972589 -2 21 C-2.99 21.33 -3.98 21.66 -5 22 C-5.83288874 15.74692761 -6.03863773 10.23182639 -5 4 C-4.67 4.66 -4.34 5.32 -4 6 C-3.34 6 -2.68 6 -2 6 C-2 6.99 -2 7.98 -2 9 C-1.34 9 -0.68 9 0 9 C0 6.03 0 3.06 0 0 Z " fill="#3F7174" transform="translate(10,74)"/>
<path d="M0 0 C2.5 1.75 2.5 1.75 5 4 C5 5.32 5 6.64 5 8 C5.99 8 6.98 8 8 8 C8 12.62 8 17.24 8 22 C7.67 22 7.34 22 7 22 C7 19.69 7 17.38 7 15 C5.68 15.33 4.36 15.66 3 16 C2.67 17.32 2.34 18.64 2 20 C2 17.36 2 14.72 2 12 C2.66 12 3.32 12 4 12 C4 10.68 4 9.36 4 8 C3.01 8.33 2.02 8.66 1 9 C0.67 6.03 0.34 3.06 0 0 Z " fill="#236164" transform="translate(147,64)"/>
<path d="M0 0 C0.99 0.33 1.98 0.66 3 1 C3.36923077 7.4 3.36923077 7.4 1.5 10.4375 C1.005 10.953125 0.51 11.46875 0 12 C-1.32 11.67 -2.64 11.34 -4 11 C-4.49230769 4.6 -4.49230769 4.6 -2 1.5625 C-1.34 1.046875 -0.68 0.53125 0 0 Z " fill="#F1F3F5" transform="translate(116,82)"/>
<path d="M0 0 C0.99 0 1.98 0 3 0 C4.58614781 3.46969834 5.50345255 6.1737606 5 10 C4.525625 10.45375 4.05125 10.9075 3.5625 11.375 C1.14743461 13.88666801 1.31735658 16.63602027 1 20 C-0.93852436 16.74358556 -1.24495945 14.32870564 -1.1875 10.5625 C-1.18105469 9.63566406 -1.17460937 8.70882812 -1.16796875 7.75390625 C-1.00505262 5.08283944 -0.5913295 2.60658042 0 0 Z " fill="#3D7072" transform="translate(18,69)"/>
<path d="M0 0 C0.33 0.66 0.66 1.32 1 2 C0.67 2.66 0.34 3.32 0 4 C1.32 4 2.64 4 4 4 C4.33 4.66 4.66 5.32 5 6 C5.33 5.34 5.66 4.68 6 4 C6.99 4.33 7.98 4.66 9 5 C8.07038578 6.15224028 7.1309875 7.29659176 6.1875 8.4375 C5.40439453 9.39462891 5.40439453 9.39462891 4.60546875 10.37109375 C3 12 3 12 0 13 C-3.05272895 6.65032377 -3.05272895 6.65032377 -2.8125 3.6875 C-2 2 -2 2 0 0 Z " fill="#2A6566" transform="translate(87,85)"/>
<path d="M0 0 C2.46800047 1.15173355 4.04783565 2.04783565 6 4 C6.33333333 9.33333333 6.33333333 9.33333333 5 12 C2.13275314 11.42655063 1.1385485 11.1385485 -1 9 C-1.32752234 6.28545044 -1.1308425 3.74769241 -1 1 C-0.67 0.67 -0.34 0.34 0 0 Z " fill="#F1F4F5" transform="translate(40,82)"/>
<path d="M0 0 C2.37590142 3.70416126 2.20500286 6.92984573 2.125 11.25 C2.10695313 12.51328125 2.08890625 13.7765625 2.0703125 15.078125 C2.04710938 16.04234375 2.02390625 17.0065625 2 18 C-2.82982866 14.69859813 -2.82982866 14.69859813 -3.59375 11.5625 C-3.5628125 10.716875 -3.531875 9.87125 -3.5 9 C-3.48453125 7.7315625 -3.48453125 7.7315625 -3.46875 6.4375 C-2.92432637 3.60649713 -1.87432938 2.15348482 0 0 Z " fill="#246162" transform="translate(108,43)"/>
<path d="M0 0 C0.33 0 0.66 0 1 0 C0.67 4.95 0.34 9.9 0 15 C-0.66 15 -1.32 15 -2 15 C-2 14.01 -2 13.02 -2 12 C-2.66 12 -3.32 12 -4 12 C-4.33 13.98 -4.66 15.96 -5 18 C-5.33 18 -5.66 18 -6 18 C-6 13.38 -6 8.76 -6 4 C-5.01 4.495 -5.01 4.495 -4 5 C-1.83656989 2.96731398 -1.83656989 2.96731398 0 0 Z " fill="#236263" transform="translate(10,68)"/>
<path d="M0 0 C2.97 0.495 2.97 0.495 6 1 C5.34 1.66 4.68 2.32 4 3 C2.78416747 7.3399585 2.68164421 11.83385466 2.4375 16.3125 C2.39431641 17.05306641 2.35113281 17.79363281 2.30664062 18.55664062 C2.20129568 20.37091464 2.10021684 22.1854355 2 24 C-0.16118902 20.75821647 -1.08783734 17.84400869 -2.21875 14.15625 C-2.99267788 11.75305559 -2.99267788 11.75305559 -5 9 C-3.35 9 -1.7 9 0 9 C0 8.34 0 7.68 0 7 C0.66 7 1.32 7 2 7 C1.34 4.69 0.68 2.38 0 0 Z " fill="#1E6060" transform="translate(39,37)"/>
<path d="M0 0 C2.31 1.98 4.62 3.96 7 6 C4 7 4 7 1.8125 6.0625 C1.214375 5.711875 0.61625 5.36125 0 5 C-0.33 6.65 -0.66 8.3 -1 10 C-1.66 9.34 -2.32 8.68 -3 8 C-5.9425963 8.30652045 -8.34542308 8.67271154 -11 10 C-10.67 9.01 -10.34 8.02 -10 7 C-9.34 7 -8.68 7 -8 7 C-8 6.34 -8 5.68 -8 5 C-6.25 3.7109375 -6.25 3.7109375 -4 2.375 C-3.2575 1.92898437 -2.515 1.48296875 -1.75 1.0234375 C-0.88375 0.51683594 -0.88375 0.51683594 0 0 Z " fill="#296365" transform="translate(118,32)"/>
<path d="M0 0 C0.66 0 1.32 0 2 0 C2 1.32 2 2.64 2 4 C1.34 4 0.68 4 0 4 C0.33 5.32 0.66 6.64 1 8 C2.32 7.67 3.64 7.34 5 7 C5.33 9.97 5.66 12.94 6 16 C4.68 16.33 3.36 16.66 2 17 C1.67 16.34 1.34 15.68 1 15 C0.34 15 -0.32 15 -1 15 C-1.02685412 12.68756208 -1.04632841 10.3750373 -1.0625 8.0625 C-1.07410156 6.77472656 -1.08570313 5.48695312 -1.09765625 4.16015625 C-1 1 -1 1 0 0 Z " fill="#34696C" transform="translate(149,72)"/>
<path d="M0 0 C1.79275866 3.11910856 2.34290718 5.67682428 2.625 9.25 C2.69976562 10.14203125 2.77453125 11.0340625 2.8515625 11.953125 C2.90054688 12.62859375 2.94953125 13.3040625 3 14 C2.01 14 1.02 14 0 14 C-0.2475 13.443125 -0.495 12.88625 -0.75 12.3125 C-2.21606015 9.60028873 -4.02989471 7.36412635 -6 5 C-2.25 2 -2.25 2 0 2 C0 1.34 0 0.68 0 0 Z " fill="#396E70" transform="translate(152,58)"/>
<path d="M0 0 C3 1 3 1 4 2 C4.36162029 3.32594105 4.69728039 4.65938457 5 6 C4.34 6 3.68 6 3 6 C2.9175 6.61875 2.835 7.2375 2.75 7.875 C2 10 2 10 -0.0625 11.25 C-0.701875 11.4975 -1.34125 11.745 -2 12 C-3.02375082 7.59787148 -3.08258987 5.04948031 -1 1 C-0.67 0.67 -0.34 0.34 0 0 Z " fill="#356A6C" transform="translate(7,62)"/>
<path d="M0 0 C0.33 0 0.66 0 1 0 C1 3.96 1 7.92 1 12 C-0.32 10.68 -1.64 9.36 -3 8 C-3.33 9.32 -3.66 10.64 -4 12 C-4.66 12 -5.32 12 -6 12 C-6.33 12.99 -6.66 13.98 -7 15 C-7.33 13.35 -7.66 11.7 -8 10 C-7.34 10 -6.68 10 -6 10 C-6.0928125 8.8553125 -6.0928125 8.8553125 -6.1875 7.6875 C-6 5 -6 5 -4.5 3.1875 C-4.005 2.795625 -3.51 2.40375 -3 2 C-2.34 2.33 -1.68 2.66 -1 3 C-0.67 2.01 -0.34 1.02 0 0 Z " fill="#467577" transform="translate(141,76)"/>
<path d="M0 0 C0.928125 0.5259375 0.928125 0.5259375 1.875 1.0625 C2.57625 1.371875 3.2775 1.68125 4 2 C6.23470405 1.21690533 6.23470405 1.21690533 8 0 C8.185625 0.94875 8.37125 1.8975 8.5625 2.875 C9.73400805 6.38371699 9.73400805 6.38371699 13.625 7.375 C14.73875 7.58125 15.8525 7.7875 17 8 C17 8.66 17 9.32 17 10 C3.04648437 7.31054688 3.04648437 7.31054688 -0.9375 2.8125 C-1.288125 2.214375 -1.63875 1.61625 -2 1 C-1.34 0.67 -0.68 0.34 0 0 Z " fill="#346C6F" transform="translate(46,143)"/>
<path d="M0 0 C3.18482809 5.55141971 2.5660349 11.93161477 1 18 C0.34 18 -0.32 18 -1 18 C-1.02684312 15.18743719 -1.04676188 12.37512759 -1.0625 9.5625 C-1.07087891 8.76005859 -1.07925781 7.95761719 -1.08789062 7.13085938 C-1.0965143 5.08704779 -1.0522815 3.04316098 -1 1 C-0.67 0.67 -0.34 0.34 0 0 Z " fill="#316D6F" transform="translate(79,96)"/>
<path d="M0 0 C0.99 0.33 1.98 0.66 3 1 C3 3.31 3 5.62 3 8 C1.35 8.66 -0.3 9.32 -2 10 C-2.66 8.68 -3.32 7.36 -4 6 C-2.68 4.02 -1.36 2.04 0 0 Z " fill="#266365" transform="translate(109,85)"/>
<path d="M0 0 C0.33 0 0.66 0 1 0 C1.3690205 10.55808656 1.3690205 10.55808656 -1 15 C-1.66 14.34 -2.32 13.68 -3 13 C-3.99 13.495 -3.99 13.495 -5 14 C-6.4783226 11.04335481 -6.06032783 8.25770263 -6 5 C-4 7 -4 7 -4 10 C-3.34 10 -2.68 10 -2 10 C-1.11064623 6.696686 -0.53725895 3.37705625 0 0 Z " fill="#236264" transform="translate(125,78)"/>
<path d="M0 0 C1.98 1.32 3.96 2.64 6 4 C5.67 5.65 5.34 7.3 5 9 C4.01 9.33 3.02 9.66 2 10 C2 9.34 2 8.68 2 8 C1.34 7.67 0.68 7.34 0 7 C0.33 6.67 0.66 6.34 1 6 C0.34 5.67 -0.32 5.34 -1 5 C-1 4.34 -1 3.68 -1 3 C-1.66 2.67 -2.32 2.34 -3 2 C-2.01 1.34 -1.02 0.68 0 0 Z " fill="#2A6568" transform="translate(59,98)"/>
<path d="M0 0 C1.32 0 2.64 0 4 0 C5.42258812 3.82320557 6.24042276 6.91281305 6 11 C5.690625 10.360625 5.38125 9.72125 5.0625 9.0625 C4.1654837 7.06389179 4.1654837 7.06389179 3 6 C2.67 6.66 2.34 7.32 2 8 C1.34 8 0.68 8 0 8 C-0.66 6.68 -1.32 5.36 -2 4 C-1.34 4 -0.68 4 0 4 C0 2.68 0 1.36 0 0 Z " fill="#276364" transform="translate(134,59)"/>
<path d="M0 0 C0.99 0 1.98 0 3 0 C3.33 0.99 3.66 1.98 4 3 C2.68 3 1.36 3 0 3 C0 4.32 0 5.64 0 7 C-0.99 7.33 -1.98 7.66 -3 8 C-4.65 6.35 -6.3 4.7 -8 3 C-6.865625 2.87625 -5.73125 2.7525 -4.5625 2.625 C-3.386875 2.41875 -2.21125 2.2125 -1 2 C-0.67 1.34 -0.34 0.68 0 0 Z " fill="#356A6D" transform="translate(134,56)"/>
<path d="M0 0 C1.32 0 2.64 0 4 0 C7.22265625 5.2734375 7.22265625 5.2734375 8 7 C7.67 7.66 7.34 8.32 7 9 C6.67 8.67 6.34 8.34 6 8 C5.01 9.32 4.02 10.64 3 12 C2.63743142 10.5437328 2.28520207 9.08488815 1.9375 7.625 C1.64166016 6.40683594 1.64166016 6.40683594 1.33984375 5.1640625 C1 3 1 3 2 1 C1.34 0.67 0.68 0.34 0 0 Z " fill="#256564" transform="translate(43,80)"/>
<path d="M0 0 C0.928125 0.0825 1.85625 0.165 2.8125 0.25 C3.1425 1.24 3.4725 2.23 3.8125 3.25 C2.4925 4.57 1.1725 5.89 -0.1875 7.25 C-0.1875 6.59 -0.1875 5.93 -0.1875 5.25 C-3.1575 4.755 -3.1575 4.755 -6.1875 4.25 C-4.36434338 1.00883268 -3.82500054 0.30000004 0 0 Z " fill="#35696C" transform="translate(45.1875,32.75)"/>
<path d="M0 0 C3.25 -0.3125 3.25 -0.3125 7 0 C9.4375 2.5 9.4375 2.5 11 5 C10.01 5.495 10.01 5.495 9 6 C8.67 5.67 8.34 5.34 8 5 C7.01 5.495 7.01 5.495 6 6 C5.34 4.68 4.68 3.36 4 2 C3.34 2 2.68 2 2 2 C2.33 3.32 2.66 4.64 3 6 C1.68 4.68 0.36 3.36 -1 2 C-0.67 1.34 -0.34 0.68 0 0 Z " fill="#276364" transform="translate(131,31)"/>
<path d="M0 0 C1.32 0.66 2.64 1.32 4 2 C3.67 5.3 3.34 8.6 3 12 C1 8 1 8 0 5 C-0.66 5 -1.32 5 -2 5 C-2 3.68 -2 2.36 -2 1 C-1.34 0.67 -0.68 0.34 0 0 Z " fill="#256265" transform="translate(150,86)"/>
<path d="M0 0 C2.31 1.65 4.62 3.3 7 5 C6.01 5.495 6.01 5.495 5 6 C5 8.31 5 10.62 5 13 C4.67 13 4.34 13 4 13 C3.67 11.02 3.34 9.04 3 7 C0.03 6.505 0.03 6.505 -3 6 C-2.01 5.34 -1.02 4.68 0 4 C0 2.68 0 1.36 0 0 Z " fill="#1F6262" transform="translate(28,71)"/>
<path d="M0 0 C0.66 0 1.32 0 2 0 C2.66 0.99 3.32 1.98 4 3 C4.66 2.01 5.32 1.02 6 0 C7.5625 2.375 7.5625 2.375 9 5 C8.67 5.66 8.34 6.32 8 7 C5.4375 7.625 5.4375 7.625 3 8 C2.67 6.35 2.34 4.7 2 3 C1.34 3 0.68 3 0 3 C0 2.01 0 1.02 0 0 Z " fill="#2A6463" transform="translate(19,66)"/>
<path d="M0 0 C0.99 0.66 1.98 1.32 3 2 C1.95833333 3.72526042 0.91666667 5.45052083 -0.125 7.17578125 C-1.21623999 9.11361926 -1.21623999 9.11361926 -1 12 C-1.99 12.33 -2.98 12.66 -4 13 C-3.34 10.36 -2.68 7.72 -2 5 C-2.66 5 -3.32 5 -4 5 C-3 2 -3 2 0 0 Z " fill="#386A6E" transform="translate(111,27)"/>
<path d="M0 0 C1.65 0.33 3.3 0.66 5 1 C5 1.66 5 2.32 5 3 C5.99 3.33 6.98 3.66 8 4 C7.34 4.66 6.68 5.32 6 6 C3.8359375 5.7578125 3.8359375 5.7578125 1.375 5.125 C0.14910156 4.81949219 0.14910156 4.81949219 -1.1015625 4.5078125 C-2.04128906 4.25644531 -2.04128906 4.25644531 -3 4 C-2.01 2.68 -1.02 1.36 0 0 Z " fill="#376D6F" transform="translate(30,21)"/>
<path d="M0 0 C2 2 2 2 2.3125 5.5 C2.209375 6.655 2.10625 7.81 2 9 C1.01 9.66 0.02 10.32 -1 11 C-3.29379749 7.55930376 -4 6.27709699 -4 2 C-3.34 2 -2.68 2 -2 2 C-1.67 2.66 -1.34 3.32 -1 4 C-0.67 2.68 -0.34 1.36 0 0 Z " fill="#366B6F" transform="translate(18,112)"/>
<path d="M0 0 C1.31471568 0.28151087 2.62675767 0.57553339 3.9375 0.875 C4.66839844 1.03742188 5.39929688 1.19984375 6.15234375 1.3671875 C8 2 8 2 9 4 C6.09399739 5.25664978 4.20395416 6 1 6 C0.67 4.02 0.34 2.04 0 0 Z " fill="#276264" transform="translate(100,145)"/>
<path d="M0 0 C3.125 -0.1875 3.125 -0.1875 6 0 C6.33 0.66 6.66 1.32 7 2 C6.67 2.66 6.34 3.32 6 4 C4.68 3.67 3.36 3.34 2 3 C1.34 4.32 0.68 5.64 0 7 C-0.66 5.68 -1.32 4.36 -2 3 C-1.34 2.01 -0.68 1.02 0 0 Z " fill="#336A6D" transform="translate(118,17)"/>
<path d="M0 0 C4.455 1.98 4.455 1.98 9 4 C8.01 4.99 7.02 5.98 6 7 C5.01 6.67 4.02 6.34 3 6 C3 5.34 3 4.68 3 4 C2.01 3.67 1.02 3.34 0 3 C0 2.01 0 1.02 0 0 Z " fill="#266263" transform="translate(44,139)"/>
<path d="M0 0 C0.99 0.33 1.98 0.66 3 1 C1.60667426 4.36720387 0.0210714 5.9859524 -3 8 C-3.33 6.35 -3.66 4.7 -4 3 C-3.34 3 -2.68 3 -2 3 C-2 2.34 -2 1.68 -2 1 C-1.34 0.67 -0.68 0.34 0 0 Z " fill="#286364" transform="translate(124,117)"/>
<path d="M0 0 C1.485 0.99 1.485 0.99 3 2 C4.32 2 5.64 2 7 2 C7 2.66 7 3.32 7 4 C4.33333333 5.33333333 1.66666667 6.66666667 -1 8 C-1.125 2.25 -1.125 2.25 0 0 Z " fill="#276465" transform="translate(93,103)"/>
<path d="M0 0 C0.66 0.33 1.32 0.66 2 1 C1.67 1.66 1.34 2.32 1 3 C3.475 3.99 3.475 3.99 6 5 C5.67 5.99 5.34 6.98 5 8 C2.0625 7.25 2.0625 7.25 -1 6 C-2 4 -2 4 -2 2 C-1.34 1.34 -0.68 0.68 0 0 Z " fill="#33686B" transform="translate(40,92)"/>
<path d="M0 0 C2.31 0.33 4.62 0.66 7 1 C6.34 2.98 5.68 4.96 5 7 C2.47411298 4.63707344 1.11179163 3.33537489 0 0 Z " fill="#276565" transform="translate(55,80)"/>
<path d="M0 0 C0.33 0.66 0.66 1.32 1 2 C1.99 1.67 2.98 1.34 4 1 C4.66 2.65 5.32 4.3 6 6 C4.35 6.33 2.7 6.66 1 7 C-0.0625 4.625 -0.0625 4.625 -1 2 C-0.67 1.34 -0.34 0.68 0 0 Z " fill="#2C6464" transform="translate(22,57)"/>
<path d="M0 0 C0.66 0.99 1.32 1.98 2 3 C0.68 3.33 -0.64 3.66 -2 4 C-2 5.32 -2 6.64 -2 8 C-3.65 8 -5.3 8 -7 8 C-6.02133662 6.85373678 -5.04205413 5.70800212 -4.0625 4.5625 C-3.51722656 3.92441406 -2.97195312 3.28632812 -2.41015625 2.62890625 C-1.63204305 1.73008851 -0.84063472 0.84063472 0 0 Z " fill="#246062" transform="translate(39,33)"/>
<path d="M0 0 C1.65 0 3.3 0 5 0 C4.67 0.66 4.34 1.32 4 2 C4.66 2.66 5.32 3.32 6 4 C4.35 5.32 2.7 6.64 1 8 C0.40267181 5.23735711 0 2.83967231 0 0 Z " fill="#366B6D" transform="translate(38,15)"/>
<path d="M0 0 C0.94875 0.350625 1.8975 0.70125 2.875 1.0625 C1.885 2.5475 1.885 2.5475 0.875 4.0625 C0.276875 3.8975 -0.32125 3.7325 -0.9375 3.5625 C-3.23844336 2.9510876 -3.23844336 2.9510876 -6.125 3.0625 C-5.795 2.0725 -5.465 1.0825 -5.125 0.0625 C-3.125 -0.9375 -3.125 -0.9375 0 0 Z " fill="#296365" transform="translate(110.125,9.9375)"/>
<path d="M0 0 C0.99 0.33 1.98 0.66 3 1 C4.1875 4.5625 4.1875 4.5625 5 8 C3.02 8 1.04 8 -1 8 C-1 7.01 -1 6.02 -1 5 C-0.34 5 0.32 5 1 5 C0.67 3.35 0.34 1.7 0 0 Z " fill="#3D6C70" transform="translate(54,7)"/>
<path d="M0 0 C1 2 2 4 3 6 C3.99 6 4.98 6 6 6 C5.67 7.32 5.34 8.64 5 10 C3.125 9.875 3.125 9.875 1 9 C-0.64661571 5.3931275 -1.27162597 3.8148779 0 0 Z " fill="#3B6C71" transform="translate(132,90)"/>
<path d="M0 0 C2.875 -0.1875 2.875 -0.1875 6 0 C6.66 0.99 7.32 1.98 8 3 C4.71303767 3.79953138 3.28976808 4.09658936 0 3 C0 2.01 0 1.02 0 0 Z " fill="#366A6C" transform="translate(130,28)"/>
<path d="M0 0 C0.33 0 0.66 0 1 0 C1 3.96 1 7.92 1 12 C0.34 12 -0.32 12 -1 12 C-1.33 9.03 -1.66 6.06 -2 3 C-1.34 3 -0.68 3 0 3 C0 2.01 0 1.02 0 0 Z " fill="#437074" transform="translate(70,107)"/>
<path d="M0 0 C2.475 0.99 2.475 0.99 5 2 C4.34 3.98 3.68 5.96 3 8 C2.67 7.34 2.34 6.68 2 6 C2.33 5.34 2.66 4.68 3 4 C1.68 4.33 0.36 4.66 -1 5 C-0.67 3.35 -0.34 1.7 0 0 Z " fill="#31686C" transform="translate(101,22)"/>
<path d="M0 0 C1.32 0.66 2.64 1.32 4 2 C4 2.99 4 3.98 4 5 C2.02 5 0.04 5 -2 5 C-2 4.01 -2 3.02 -2 2 C-1.34 2 -0.68 2 0 2 C0 1.34 0 0.68 0 0 Z " fill="#FBFCFD" transform="translate(94,111)"/>
<path d="M0 0 C0.77321882 2.98241547 1.41196203 5.97580475 2 9 C-0.51570636 8.02617818 -1.73944098 7.53848865 -2.9375 5.0625 C-3 3 -3 3 -1.5625 1.25 C-1.046875 0.8375 -0.53125 0.425 0 0 Z " fill="#396D70" transform="translate(24,27)"/>
<path d="M0 0 C2.31 0.66 4.62 1.32 7 2 C6.34 3.32 5.68 4.64 5 6 C5 5.34 5 4.68 5 4 C3.35 4 1.7 4 0 4 C-0.33 3.01 -0.66 2.02 -1 1 C-0.67 0.67 -0.34 0.34 0 0 Z " fill="#376C70" transform="translate(128,72)"/>
<path d="M0 0 C2.475 0.495 2.475 0.495 5 1 C5 1.66 5 2.32 5 3 C7.97 3 10.94 3 14 3 C14 3.33 14 3.66 14 4 C10.04 4 6.08 4 2 4 C1.34 2.68 0.68 1.36 0 0 Z " fill="#5E8185" transform="translate(70,8)"/>
<path d="M0 0 C0.99 0.33 1.98 0.66 3 1 C2.3125 2.9375 2.3125 2.9375 1 5 C-1.625 5.75 -1.625 5.75 -4 6 C-2.68 4.02 -1.36 2.04 0 0 Z " fill="#E6EBEC" transform="translate(67,141)"/>
<path d="M0 0 C2.475 0.99 2.475 0.99 5 2 C4.67 3.65 4.34 5.3 4 7 C2 5.1875 2 5.1875 0 3 C0 2.01 0 1.02 0 0 Z " fill="#3B6D6F" transform="translate(89,131)"/>
<path d="M0 0 C1.32 0 2.64 0 4 0 C3.67 1.65 3.34 3.3 3 5 C2.01 5.33 1.02 5.66 0 6 C0 5.34 0 4.68 0 4 C-0.66 3.67 -1.32 3.34 -2 3 C-1.34 2.01 -0.68 1.02 0 0 Z " fill="#396C6F" transform="translate(61,102)"/>
<path d="M0 0 C0.66 0 1.32 0 2 0 C2 1.32 2 2.64 2 4 C1.34 4 0.68 4 0 4 C0 6.64 0 9.28 0 12 C-0.33 12 -0.66 12 -1 12 C-1.02687279 10.18757948 -1.04633715 8.37504767 -1.0625 6.5625 C-1.07410156 5.55316406 -1.08570313 4.54382813 -1.09765625 3.50390625 C-1 1 -1 1 0 0 Z " fill="#5F8286" transform="translate(149,72)"/>
<path d="M0 0 C2.875 -0.1875 2.875 -0.1875 6 0 C6.66 0.99 7.32 1.98 8 3 C5.33333333 3 2.66666667 3 0 3 C0 2.01 0 1.02 0 0 Z " fill="#3A6C6F" transform="translate(121,115)"/>
<path d="M0 0 C1.76462683 3.08809695 2 4.23312136 2 8 C1.34 8.66 0.68 9.32 0 10 C-1.2380014 6.42355152 -0.74926071 3.66305234 0 0 Z " fill="#3F7575" transform="translate(87,110)"/>
<path d="M0 0 C0.66 0.33 1.32 0.66 2 1 C2 2.32 2 3.64 2 5 C2.66 5.33 3.32 5.66 4 6 C3.01 6.33 2.02 6.66 1 7 C-0.32 5.35 -1.64 3.7 -3 2 C-2.01 2 -1.02 2 0 2 C0 1.34 0 0.68 0 0 Z " fill="#396A6E" transform="translate(11,51)"/>
<path d="M0 0 C0.99 0.33 1.98 0.66 3 1 C3 2.32 3 3.64 3 5 C2.01 5 1.02 5 0 5 C0 3.35 0 1.7 0 0 Z M-2 5 C-1.34 5 -0.68 5 0 5 C0 5.66 0 6.32 0 7 C-0.66 7 -1.32 7 -2 7 C-2 6.34 -2 5.68 -2 5 Z " fill="#37696C" transform="translate(137,83)"/>
</svg>
